<!--?xml version="1.0" encoding="utf-8"?-->
<!-- Generator: Adobe Illustrator 18.1.1, SVG Export Plug-In . SVG Version: 6.00 Build 0)  -->

<svg version="1.1" id="_x32_" xmlns="http://www.w3.org/2000/svg" xmlns:xlink="http://www.w3.org/1999/xlink" x="0px" y="0px" viewBox="0 0 512 512" style="width: 256px; height: 256px; opacity: 1;" xml:space="preserve">
<style type="text/css">
	.st0{fill:#4B4B4B;}
</style>
<g>
	<path class="st0" d="M317.793,61.375c0-24.336-19.801-44.138-44.138-44.138h-35.31c-24.336,0-44.138,19.802-44.138,44.138v79.448
		h123.586V61.375z M282.483,79.03c0,4.88-3.948,8.828-8.828,8.828h-35.31c-4.879,0-8.828-3.948-8.828-8.828V61.375
		c0-4.879,3.949-8.828,8.828-8.828h35.31c4.88,0,8.828,3.948,8.828,8.828V79.03z" style="fill: rgb(75, 75, 75);"></path>
	<path class="st0" d="M491.966,124.005H335.448v16.776c0,9.801-7.94,17.655-17.655,17.655H194.207
		c-9.707,0-17.655-7.854-17.655-17.655v-16.776H20.043C8.923,124.005,0,133.013,0,144.048v330.767
		c0,11.034,8.923,19.948,20.043,19.948h471.923c11.034,0,20.034-8.914,20.034-19.948V144.048
		C512,133.013,503,124.005,491.966,124.005z M94.035,280.988c0-28.975,23.474-52.457,52.456-52.457
		c28.966,0,52.449,23.482,52.449,52.457v12.56c0,28.975-23.483,52.44-52.449,52.44c-28.983,0-52.456-23.466-52.456-52.44V280.988z
		 M210.63,428.582c-16.983,0-64.138,0-64.138,0s-47.172,0-64.138,0c-16.966,0-24.664-24.672-14.862-42.112
		c7.406-13.147,19.518-28.051,39.241-36.508c11.276,7.896,24.966,12.542,39.759,12.542c14.768,0,28.474-4.646,39.759-12.542
		c19.716,8.457,31.827,23.362,39.224,36.508C235.284,403.91,227.587,428.582,210.63,428.582z M372.319,411.849h-52.965v-17.655
		h52.965V411.849z M425.285,335.341H319.354v-17.655h105.931V335.341z M425.285,258.832H319.354v-17.655h105.931V258.832z" style="fill: rgb(75, 75, 75);"></path>
</g>
</svg>
